# xmcd
#
# Track frame offsets:
#	150
#	23654
#	46783
#	71583
#	97641
#	124168
#	134142
#	145798
#	157812
#
# Disc length: 2224 seconds
#
# Revision: 0
# Processed by: cddbd v1.5.2PL0 Copyright (c) Steve Scherf et al.
# Submitted via: EZCDAudioConverter 7.0.6.1
#
DISCID=6e08ae09
DTITLE=Screamin' Jay Hawkins and The Fuzztones Live
DYEAR=1900
DGENRE=
TTITLE0=Screamin' Jay Hawkins and The Fuzztones - Alligator Wine [Live]
TTITLE1=Screamin' Jay Hawkins and The Fuzztones - I Put A Spell On You [Live]
TTITLE2=Screamin' Jay Hawkins and The Fuzztones - It's That Time Again [Live]
TTITLE3=Screamin' Jay Hawkins and The Fuzztones - Constipation Blues [Live]
TTITLE4=The Fuzztones with Rat Scabies and Clive Jackson - Gloria [Live]
TTITLE5=The Fuzztones - Can't Stand This Love, Goodbye [Live]
TTITLE6=The Fuzztones - Writing On The Wall [Live]
TTITLE7=The Fuzztones - Lie, Beg, Borrow and Steal [Live]
TTITLE8=The Fuzztones - She Told Me Lies [Live]
EXTD=
EXTT0=
EXTT1=
EXTT2=
EXTT3=
EXTT4=
EXTT5=
EXTT6=
EXTT7=
EXTT8=
PLAYORDER=
